<svg xmlns="http://www.w3.org/2000/svg" viewBox="0 0 2783.92 1284.24" class="w-full h-auto" fill="none" stroke="#F8FAFC" stroke-miterlimit="10" stroke-width="3"><circle cx="894.99" cy="705.84" r="164.67"></circle><circle cx="894.99" cy="705.84" r="254.34"></circle><line x1="895.02" y1="403.76" x2="895.02" y2="1014.75"></line><path d="M895.02,403.76v824.01c0,30.36-24.61,54.96-54.96,54.96H0"></path><line x1="1046.23" y1="444.35" x2="740.37" y2="973.27"></line><line x1="1156.82" y1="555.19" x2="627.26" y2="859.94"></line><line x1="1197.07" y1="706.5" x2="586.08" y2="705.21"></line><line x1="1156.16" y1="857.63" x2="627.89" y2="550.65"></line><line x1="1045.09" y1="967.99" x2="741.46" y2="437.78"></line><line x1="894.34" y1="1140.91" x2="1633.95" y2="1140.91"></line><line x1="1387.63" y1="1056.36" x2="1387.63" y2="1140.89"></line><line x1="1154.26" y1="1056.36" x2="1154.26" y2="1140.89"></line><line x1="1212.61" y1="1088.98" x2="1212.61" y2="1140.89"></line><line x1="1329.29" y1="1088.98" x2="1329.29" y2="1140.89"></line><line x1="1270.95" y1="1099.32" x2="1270.95" y2="1140.89"></line><line x1="1096.3" y1="927.47" x2="1096.3" y2="1282.74"></line><line x1="1447" y1="927.47" x2="1447" y2="1282.74"></line><path d="M920.93,1140.91s134.77,13.12,175.37-189.56c0,0,23.82,145.47,174.65,147.98,0,0,142.81,5.87,176.05-147.47,0,0,9.09,151.08,171.24,189.23"></path><path d="M1633.28,1282.74s-6.66-699.49,126.97-884.73c20.85-28.9,64.17-27.88,84.2,1.6,53.91,79.33,144.67,315.9,134.69,883.13"></path><path d="M1707.72,515.58s89.47-69.55,191.33,0"></path><path d="M1845.82,488.99s-5.04,189.99,115.57,347.86"></path><path d="M1699.85,545.23s-60.58,535.53,280.05,661.13"></path><path d="M1788.13,484.67s-23.82,318.07,187.26,503.8"></path><path d="M1741.13,494.99s-58.56,442.04,238.76,610.11"></path><path d="M1649.13,878.33s46.79,287.49,196.69,404.41"></path><path d="M1635.88,1111.63s43.3,103.33,116.5,171.11"></path><path d="M1765.44,491.19s9.19,184.39-111.42,342.26"></path><path d="M1909.97,551.77s64.6,535.53-276.02,661.13"></path><path d="M1823.14,486.87s29.38,315.88-181.7,501.6"></path><path d="M1870.13,497.19s63.06,439.45-234.26,607.53"></path><path d="M1966.47,878.33s-46.79,287.49-196.69,404.41"></path><path d="M1979.89,1111.63s-43.3,103.33-116.5,171.11"></path><path d="M2783.92,1282.74h-507.52c-30.36,0-54.96-24.61-54.96-54.96v-577.83h18.42v-206.62h-18.42v-44.98l-39.58-98.23v-66.15C2143.13,155.35,2134.16.09,2134.16.09h0s-8.97,155.27-47.7,233.89v66.15s-39.58,98.23-39.58,98.23v44.98h-18.42s0,206.62,0,206.62h18.42v632.79"></path><line x1="2181.86" y1="233.98" x2="2086.45" y2="233.98"></line><line x1="2181.86" y1="300.12" x2="2086.45" y2="300.12"></line><line x1="2221.44" y1="399.79" x2="2046.88" y2="399.79"></line><line x1="2221.44" y1="443.33" x2="2046.88" y2="443.33"></line><line x1="2221.44" y1="650.01" x2="2046.88" y2="650.01"></line><rect x="2061.54" y="478.78" width="147.7" height="147.7"></rect><circle cx="2135.39" cy="552.63" r="47.43" fill="#0B1220" stroke="#F8FAFC"></circle><line x1="2160.73" y1="300.12" x2="2189.3" y2="399.79"></line><line x1="2109.48" y1="300.12" x2="2080.91" y2="399.79"></line><line x1="2135.11" y1="300.12" x2="2135.11" y2="399.79"></line><path d="M2127.64,300.12v-19.75c0-3.6,2.92-6.51,6.51-6.51h0c3.6,0,6.51,2.92,6.51,6.51v19.75"></path><path d="M2100.67,300.12v-19.75c0-3.6,2.92-6.51,6.51-6.51h0c3.6,0,6.51,2.92,6.51,6.51v19.75"></path><path d="M2154.62,300.12v-19.75c0-3.6,2.92-6.51,6.51-6.51h0c3.6,0,6.51,2.92,6.51,6.51v19.75"></path><path d="M2127.1,443.33v-19.75c0-3.6,2.92-6.51,6.51-6.51h0c3.6,0,6.51,2.92,6.51,6.51v19.75"></path><path d="M2101.95,443.33v-19.75c0-3.6,2.92-6.51,6.51-6.51h0c3.6,0,6.51,2.92,6.51,6.51v19.75"></path><path d="M2152.25,443.33v-19.75c0-3.6,2.92-6.51,6.51-6.51h0c3.6,0,6.51,2.92,6.51,6.51v19.75"></path><path d="M2177.39,443.33v-19.75c0-3.6,2.92-6.51,6.51-6.51h0c3.6,0,6.51,2.92,6.51,6.51v19.75"></path><path d="M2076.8,443.33v-19.75c0-3.6,2.92-6.51,6.51-6.51h0c3.6,0,6.51,2.92,6.51,6.51v19.75"></path><line x1="2082.93" y1="682.67" x2="2082.93" y2="1282.74"></line><line x1="2114.97" y1="682.67" x2="2114.97" y2="1282.74"></line><line x1="2147.01" y1="682.67" x2="2147.01" y2="1282.74"></line><line x1="2179.06" y1="682.67" x2="2179.06" y2="1282.74"></line><circle cx="1447" cy="914.26" r="14.65"></circle><circle cx="1096.3" cy="914.26" r="14.65"></circle><circle cx="2135.39" cy="552.63" r="3.64" fill="#F8FAFC"></circle><line x1="2135.39" y1="552.63" x2="2135.39" y2="514.24"></line><line x1="2135.39" y1="552.63" x2="2154.26" y2="566.17"></line></svg>
